<svg xmlns="http://www.w3.org/2000/svg" width="32" height="32" viewBox="0 0 24 24" fill="none" stroke="#ffffff" stroke-width="2" stroke-linecap="round" stroke-linejoin="round">
  <path d="M12 2C6.48 2 2 6.48 2 12c0 4.42 2.87 8.17 6.84 9.5.5.1.66-.22.66-.48v-1.7c-2.78.6-3.37-1.34-3.37-1.34-.45-1.15-1.11-1.45-1.11-1.45-.9-.63.07-.62.07-.62 1 .07 1.53 1.02 1.53 1.02.88 1.52 2.3 1.08 2.86.83.09-.64.34-1.08.62-1.33-2.22-.25-4.56-1.11-4.56-4.95 0-1.09.39-1.99 1.03-2.69-.1-.25-.45-1.27.1-2.65 0 0 .84-.27 2.75 1.03a9.56 9.56 0 0 1 5 0c1.91-1.3 2.75-1.03 2.75-1.03.55 1.38.2 2.4.1 2.65.64.7 1.03 1.6 1.03 2.69 0 3.85-2.34 4.7-4.56 4.95.35.3.66.89.66 1.8v2.67c0 .27.16.59.66.48A10 10 0 0 0 22 12c0-5.52-4.48-10-10-10z"></path>
</svg>